<svg width="12" height="12" viewBox="0 0 12 12" fill="none" xmlns="http://www.w3.org/2000/svg">
<path d="M7.70096 8.74957L4.29904 6.74957M7.75 3.24957L4.25 5.24957M9 3.99957C9.39782 3.99957 9.77935 3.84154 10.0607 3.56023C10.342 3.27893 10.5 2.8974 10.5 2.49957C10.5 2.10175 10.342 1.72022 10.0607 1.43891C9.77935 1.15761 9.39782 0.999573 9 0.999573C8.60217 0.999573 8.22064 1.15761 7.93934 1.43891C7.65803 1.72022 7.5 2.10175 7.5 2.49957C7.5 2.8974 7.65803 3.27893 7.93934 3.56023C8.22064 3.84154 8.60217 3.99957 9 3.99957ZM3 7.49957C3.39782 7.49957 3.77936 7.34154 4.06066 7.06023C4.34196 6.77893 4.5 6.3974 4.5 5.99957C4.5 5.60175 4.34196 5.22022 4.06066 4.93891C3.77936 4.65761 3.39782 4.49957 3 4.49957C2.60218 4.49957 2.22064 4.65761 1.93934 4.93891C1.65804 5.22022 1.5 5.60175 1.5 5.99957C1.5 6.3974 1.65804 6.77893 1.93934 7.06023C2.22064 7.34154 2.60218 7.49957 3 7.49957ZM9 10.9996C9.39782 10.9996 9.77935 10.8415 10.0607 10.5602C10.342 10.2789 10.5 9.8974 10.5 9.49957C10.5 9.10175 10.342 8.72022 10.0607 8.43891C9.77935 8.15761 9.39782 7.99957 9 7.99957C8.60217 7.99957 8.22064 8.15761 7.93934 8.43891C7.65803 8.72022 7.5 9.10175 7.5 9.49957C7.5 9.8974 7.65803 10.2789 7.93934 10.5602C8.22064 10.8415 8.60217 10.9996 9 10.9996Z" stroke="#ACAFF3" stroke-width="0.363487"/>
</svg>
