<svg width="119" height="32" viewBox="0 0 119 32" fill="none" xmlns="http://www.w3.org/2000/svg">
<path d="M46.8344 26.9592H44.4422L43.1319 22.9186H38.5772L37.329 26.9592H35.0001L39.5126 13.2033H42.2997L46.8344 26.9592ZM42.7369 21.2234L41.5519 17.6315C41.4265 17.2645 41.1916 16.4004 40.8451 15.0401H40.8029C40.6649 15.6252 40.4427 16.4893 40.1372 17.6315L38.9733 21.2234H42.7369Z" fill="white"/>
<path d="M58.4391 21.877C58.4391 23.5639 57.9746 24.8973 57.0455 25.8762C56.2134 26.7476 55.18 27.1828 53.9466 27.1828C52.6152 27.1828 51.6587 26.7135 51.0762 25.7749H51.0341V31H48.7884V20.3048C48.7884 19.2443 48.7599 18.1559 48.7051 17.0395H50.6802L50.8055 18.6117H50.8476C51.5966 17.4271 52.7331 16.8359 54.2584 16.8359C55.4508 16.8359 56.4462 17.2979 57.2425 18.223C58.0409 19.1492 58.4391 20.3668 58.4391 21.877ZM56.1512 21.9576C56.1512 20.9922 55.93 20.1963 55.4855 19.5699C54.9999 18.9166 54.3479 18.59 53.5305 18.59C52.9764 18.59 52.4729 18.7719 52.0232 19.1306C51.5723 19.4924 51.2774 19.9647 51.1394 20.5498C51.0699 20.8227 51.0351 21.0459 51.0351 21.2217V22.8755C51.0351 23.597 51.2606 24.2058 51.7114 24.703C52.1622 25.2002 52.7479 25.4483 53.4684 25.4483C54.3142 25.4483 54.9725 25.1278 55.4434 24.489C55.9153 23.8492 56.1512 23.0058 56.1512 21.9576Z" fill="white"/>
<path d="M70.0648 21.877C70.0648 23.5639 69.6002 24.8973 68.6701 25.8762C67.839 26.7476 66.8057 27.1828 65.5722 27.1828C64.2408 27.1828 63.2844 26.7135 62.7029 25.7749H62.6608V31H60.4151V20.3048C60.4151 19.2443 60.3866 18.1559 60.3318 17.0395H62.3069L62.4322 18.6117H62.4743C63.2222 17.4271 64.3588 16.8359 65.8851 16.8359C67.0764 16.8359 68.0718 17.2979 68.8703 18.223C69.6655 19.1492 70.0648 20.3668 70.0648 21.877ZM67.7769 21.9576C67.7769 20.9922 67.5546 20.1963 67.1101 19.5699C66.6245 18.9166 65.9746 18.59 65.1562 18.59C64.6011 18.59 64.0986 18.7719 63.6478 19.1306C63.1969 19.4924 62.9031 19.9647 62.7651 20.5498C62.6966 20.8227 62.6608 21.0459 62.6608 21.2217V22.8755C62.6608 23.597 62.8862 24.2058 63.3349 24.703C63.7858 25.1992 64.3714 25.4483 65.094 25.4483C65.9399 25.4483 66.5982 25.1278 67.069 24.489C67.5409 23.8492 67.7769 23.0058 67.7769 21.9576Z" fill="white"/>
<path d="M83.0631 23.1008C83.0631 24.2709 82.6491 25.2229 81.8181 25.9578C80.9048 26.761 79.6334 27.162 77.9997 27.162C76.4913 27.162 75.2821 26.8768 74.3667 26.3051L74.8871 24.4683C75.873 25.0534 76.9548 25.3469 78.1335 25.3469C78.9793 25.3469 79.6376 25.1588 80.1106 24.7846C80.5814 24.4105 80.8163 23.9081 80.8163 23.2817C80.8163 22.7235 80.6225 22.2532 80.2338 21.8718C79.8472 21.4904 79.2015 21.1358 78.2999 20.8082C75.8456 19.9099 74.6195 18.5941 74.6195 16.8637C74.6195 15.7329 75.0493 14.8057 75.9099 14.0842C76.7673 13.3617 77.9112 13.001 79.3416 13.001C80.6172 13.001 81.6769 13.2191 82.5227 13.6542L81.9613 15.4507C81.1713 15.029 80.2781 14.8181 79.2784 14.8181C78.4884 14.8181 77.8712 15.0094 77.4288 15.3898C77.0548 15.7298 76.8673 16.1443 76.8673 16.6353C76.8673 17.179 77.0812 17.6286 77.5109 17.9822C77.8849 18.3088 78.5643 18.6623 79.5502 19.0437C80.7563 19.5202 81.6422 20.0774 82.212 20.7162C82.7798 21.3529 83.0631 22.1499 83.0631 23.1008Z" fill="white"/>
<path d="M90.488 18.6933H88.0127V23.5091C88.0127 24.734 88.4487 25.3459 89.323 25.3459C89.7243 25.3459 90.0572 25.3118 90.3205 25.2436L90.3827 26.9171C89.9403 27.0793 89.3578 27.161 88.6362 27.161C87.7493 27.161 87.0562 26.8954 86.5559 26.3651C86.0577 25.8338 85.807 24.9428 85.807 23.691V18.6912H84.3323V17.0374H85.807V15.2213L88.0127 14.568V17.0374H90.488V18.6933Z" fill="white"/>
<path d="M101.657 21.9173C101.657 23.442 101.212 24.6937 100.325 25.6726C99.3951 26.6804 98.1606 27.1828 96.6216 27.1828C95.1385 27.1828 93.9577 26.7 93.0771 25.7346C92.1965 24.7692 91.7562 23.5505 91.7562 22.0817C91.7562 20.5446 92.2092 19.2856 93.1182 18.3068C94.0251 17.3269 95.2491 16.8369 96.7881 16.8369C98.2712 16.8369 99.4646 17.3196 100.365 18.2861C101.227 19.2236 101.657 20.434 101.657 21.9173ZM99.3266 21.9886C99.3266 21.0739 99.1275 20.2893 98.7241 19.635C98.2533 18.8432 97.5802 18.4484 96.708 18.4484C95.8053 18.4484 95.1196 18.8443 94.6487 19.635C94.2453 20.2904 94.0462 21.0873 94.0462 22.03C94.0462 22.9448 94.2453 23.7293 94.6487 24.3826C95.1343 25.1744 95.8127 25.5692 96.688 25.5692C97.5454 25.5692 98.2185 25.1661 98.7041 24.3619C99.118 23.6952 99.3266 22.9024 99.3266 21.9886Z" fill="white"/>
<path d="M108.956 18.9776C108.734 18.9373 108.497 18.9166 108.248 18.9166C107.458 18.9166 106.847 19.2091 106.418 19.7952C106.044 20.3121 105.856 20.9653 105.856 21.754V26.9585H103.612L103.633 20.1632C103.633 19.02 103.604 17.9791 103.548 17.0405H105.504L105.587 18.9383H105.649C105.886 18.2861 106.26 17.761 106.772 17.3672C107.272 17.0126 107.812 16.8359 108.395 16.8359C108.602 16.8359 108.79 16.8503 108.956 16.8762V18.9776Z" fill="white"/>
<path d="M119 21.5297C119 21.9245 118.974 22.2574 118.918 22.5292H112.181C112.207 23.5091 112.533 24.2585 113.158 24.7754C113.726 25.2374 114.46 25.4689 115.362 25.4689C116.359 25.4689 117.269 25.3129 118.088 24.9997L118.44 26.5295C117.483 26.9388 116.354 27.1424 115.051 27.1424C113.484 27.1424 112.253 26.6897 111.358 25.7852C110.465 24.8808 110.017 23.6663 110.017 22.1426C110.017 20.6469 110.433 19.4014 111.266 18.4081C112.139 17.3475 113.317 16.8173 114.8 16.8173C116.257 16.8173 117.36 17.3475 118.109 18.4081C118.702 19.2505 119 20.2924 119 21.5297ZM116.859 20.9581C116.873 20.3048 116.727 19.7404 116.423 19.2639C116.034 18.651 115.437 18.345 114.633 18.345C113.899 18.345 113.301 18.6437 112.845 19.2432C112.471 19.7198 112.249 20.2914 112.181 20.957H116.859V20.9581Z" fill="white"/>
<path d="M42.7089 4.46149C42.7089 5.64119 42.3492 6.52921 41.6308 7.12558C40.9654 7.67583 40.0199 7.95146 38.7951 7.95146C38.1878 7.95146 37.6681 7.9254 37.233 7.87328V1.42757C37.8006 1.33736 38.412 1.29126 39.0722 1.29126C40.2389 1.29126 41.1183 1.54083 41.7113 2.03997C42.3757 2.60426 42.7089 3.4111 42.7089 4.46149ZM41.5829 4.49056C41.5829 3.72582 41.3771 3.13948 40.9654 2.73054C40.5538 2.32261 39.9526 2.11815 39.1609 2.11815C38.8246 2.11815 38.5383 2.1402 38.3009 2.1863V7.08649C38.4323 7.10653 38.6728 7.11555 39.0223 7.11555C39.8395 7.11555 40.4702 6.89204 40.9145 6.44502C41.3588 5.998 41.5829 5.34651 41.5829 4.49056Z" fill="white"/>
<path d="M48.6789 5.49124C48.6789 6.21789 48.4679 6.81325 48.0461 7.28032C47.6039 7.76041 47.018 7.99996 46.2864 7.99996C45.5813 7.99996 45.0198 7.77044 44.601 7.30939C44.1833 6.84934 43.9744 6.26901 43.9744 5.56942C43.9744 4.83775 44.1894 4.23738 44.6214 3.77131C45.0534 3.30525 45.6342 3.07172 46.3658 3.07172C47.071 3.07172 47.6375 3.30124 48.0665 3.76129C48.474 4.20831 48.6789 4.78563 48.6789 5.49124ZM47.5713 5.52531C47.5713 5.08932 47.4755 4.71547 47.2849 4.40376C47.0608 4.0269 46.7418 3.83847 46.3271 3.83847C45.8981 3.83847 45.5721 4.0269 45.3479 4.40376C45.1563 4.71547 45.0616 5.09533 45.0616 5.54436C45.0616 5.98035 45.1574 6.35421 45.3479 6.66592C45.5792 7.04278 45.9012 7.23121 46.3169 7.23121C46.7245 7.23121 47.0445 7.03977 47.2747 6.65589C47.4724 6.33817 47.5713 5.96131 47.5713 5.52531Z" fill="white"/>
<path d="M56.6838 3.16791L55.1808 7.89269H54.2026L53.5801 5.84101C53.4221 5.32884 53.2937 4.81968 53.1939 4.31452H53.1745C53.0818 4.83371 52.9534 5.34187 52.7883 5.84101L52.127 7.89269H51.1376L49.7244 3.16791H50.8218L51.3649 5.41403C51.4963 5.94525 51.6043 6.4514 51.6909 6.93049H51.7103C51.7898 6.53559 51.9212 6.03245 52.1067 5.42406L52.7883 3.16891H53.6585L54.3117 5.37595C54.4696 5.91418 54.598 6.43236 54.6968 6.9315H54.7264C54.7987 6.44539 54.9078 5.92721 55.0524 5.37595L55.6353 3.16891H56.6838V3.16791Z" fill="white"/>
<path d="M62.2197 7.89274H61.1518V5.18656C61.1518 4.35266 60.8298 3.9357 60.1838 3.9357C59.8669 3.9357 59.6112 4.04997 59.4125 4.27949C59.2158 4.50901 59.116 4.77963 59.116 5.08934V7.89173H58.0481V4.51803C58.0481 4.10309 58.0349 3.65306 58.0094 3.16595H58.9478L58.9978 3.90463H59.0273C59.1516 3.67511 59.3371 3.48568 59.5806 3.33433C59.87 3.15793 60.194 3.06873 60.5486 3.06873C60.9969 3.06873 61.3699 3.21105 61.6664 3.4967C62.0353 3.8465 62.2197 4.36869 62.2197 5.06228V7.89274Z" fill="white"/>
<path d="M65.1644 7.89273H64.0976V1H65.1644V7.89273Z" fill="white"/>
<path d="M71.4514 5.49124C71.4514 6.21789 71.2405 6.81325 70.8187 7.28032C70.3764 7.76041 69.7895 7.99996 69.0589 7.99996C68.3528 7.99996 67.7914 7.77044 67.3736 7.30939C66.9558 6.84934 66.7469 6.26901 66.7469 5.56942C66.7469 4.83775 66.9619 4.23738 67.394 3.77131C67.826 3.30525 68.4068 3.07172 69.1374 3.07172C69.8435 3.07172 70.409 3.30124 70.839 3.76129C71.2466 4.20831 71.4514 4.78563 71.4514 5.49124ZM70.3428 5.52531C70.3428 5.08932 70.247 4.71547 70.0565 4.40376C69.8333 4.0269 69.5134 3.83847 69.0997 3.83847C68.6697 3.83847 68.3436 4.0269 68.1205 4.40376C67.9289 4.71547 67.8342 5.09533 67.8342 5.54436C67.8342 5.98035 67.9299 6.35421 68.1205 6.66592C68.3518 7.04278 68.6738 7.23121 69.0895 7.23121C69.4971 7.23121 69.816 7.03977 70.0463 6.65589C70.245 6.33817 70.3428 5.96131 70.3428 5.52531Z" fill="white"/>
<path d="M76.6195 7.89272H75.6607L75.5812 7.34848H75.5517C75.2236 7.78247 74.7559 7.99996 74.1486 7.99996C73.6952 7.99996 73.3283 7.85663 73.0522 7.57198C72.8015 7.3134 72.6762 6.99166 72.6762 6.60979C72.6762 6.03247 72.9208 5.59247 73.4129 5.28777C73.904 4.98308 74.5949 4.83374 75.4844 4.84075V4.75255C75.4844 4.13013 75.1523 3.81942 74.4869 3.81942C74.0131 3.81942 73.5953 3.93669 73.2346 4.16922L73.0176 3.47965C73.4639 3.20803 74.0151 3.07172 74.6652 3.07172C75.9205 3.07172 76.5502 3.7232 76.5502 5.02618V6.76615C76.5502 7.23822 76.5737 7.61408 76.6195 7.89272ZM75.5109 6.26901V5.54035C74.333 5.5203 73.7441 5.83803 73.7441 6.49252C73.7441 6.73908 73.8113 6.92351 73.9489 7.04679C74.0864 7.17007 74.2617 7.23121 74.4706 7.23121C74.7049 7.23121 74.924 7.15804 75.1237 7.01271C75.3245 6.86638 75.4477 6.68095 75.4936 6.45343C75.5048 6.40232 75.5109 6.34017 75.5109 6.26901Z" fill="white"/>
<path d="M82.6874 7.89273H81.7398L81.6898 7.134H81.6603C81.3576 7.71132 80.8421 7.99997 80.1176 7.99997C79.5388 7.99997 79.0569 7.77646 78.6748 7.32944C78.2927 6.88242 78.1021 6.3021 78.1021 5.58947C78.1021 4.82473 78.309 4.20531 78.7247 3.73223C79.1272 3.29123 79.6203 3.07073 80.2073 3.07073C80.8522 3.07073 81.3036 3.28421 81.5604 3.71219H81.5808V1H82.6497V6.61983C82.6497 7.07987 82.6619 7.50384 82.6874 7.89273ZM81.5808 5.90018V5.11239C81.5808 4.97607 81.5706 4.86582 81.5512 4.78163C81.4911 4.52905 81.3617 4.31657 81.1651 4.14518C80.9664 3.97379 80.7269 3.88759 80.4508 3.88759C80.0524 3.88759 79.7406 4.04294 79.5113 4.35466C79.2841 4.66637 79.1689 5.06427 79.1689 5.55038C79.1689 6.01745 79.278 6.39632 79.497 6.68798C79.7283 6.99869 80.0401 7.15404 80.4304 7.15404C80.7809 7.15404 81.0611 7.02475 81.2741 6.76516C81.4799 6.52561 81.5808 6.23695 81.5808 5.90018Z" fill="white"/>
<path d="M91.8202 5.49124C91.8202 6.21789 91.6093 6.81325 91.1874 7.28032C90.7452 7.76041 90.1603 7.99996 89.4277 7.99996C88.7236 7.99996 88.1622 7.77044 87.7424 7.30939C87.3246 6.84934 87.1157 6.26901 87.1157 5.56942C87.1157 4.83775 87.3307 4.23738 87.7628 3.77131C88.1948 3.30525 88.7756 3.07172 89.5082 3.07172C90.2123 3.07172 90.7799 3.30124 91.2078 3.76129C91.6154 4.20831 91.8202 4.78563 91.8202 5.49124ZM90.7136 5.52531C90.7136 5.08932 90.6178 4.71547 90.4273 4.40376C90.2021 4.0269 89.8842 3.83847 89.4685 3.83847C89.0405 3.83847 88.7144 4.0269 88.4893 4.40376C88.2977 4.71547 88.2029 5.09533 88.2029 5.54436C88.2029 5.98035 88.2987 6.35421 88.4893 6.66592C88.7206 7.04278 89.0426 7.23121 89.4583 7.23121C89.8659 7.23121 90.1868 7.03977 90.4171 6.65589C90.6138 6.33817 90.7136 5.96131 90.7136 5.52531Z" fill="white"/>
<path d="M97.5619 7.89274H96.4951V5.18656C96.4951 4.35266 96.1731 3.9357 95.5261 3.9357C95.2092 3.9357 94.9534 4.04997 94.7557 4.27949C94.5581 4.50901 94.4592 4.77963 94.4592 5.08934V7.89173H93.3904V4.51803C93.3904 4.10309 93.3781 3.65306 93.3527 3.16595H94.2901L94.34 3.90463H94.3696C94.4949 3.67511 94.6803 3.48568 94.9229 3.33433C95.2133 3.15793 95.5363 3.06873 95.8919 3.06873C96.3392 3.06873 96.7121 3.21105 97.0086 3.4967C97.3785 3.8465 97.5619 4.36869 97.5619 5.06228V7.89274Z" fill="white"/>
<path d="M104.749 3.95475H103.573V6.24999C103.573 6.83332 103.782 7.12499 104.195 7.12499C104.387 7.12499 104.546 7.10895 104.671 7.07588L104.699 7.87269C104.488 7.95087 104.211 7.98996 103.869 7.98996C103.447 7.98996 103.119 7.86367 102.882 7.6111C102.644 7.35852 102.525 6.93355 102.525 6.33719V3.95475H101.823V3.16796H102.525V2.30198L103.572 1.99127V3.16696H104.748V3.95475H104.749Z" fill="white"/>
<path d="M110.402 7.89273H109.333V5.2066C109.333 4.35967 109.011 3.9357 108.366 3.9357C107.87 3.9357 107.532 4.18126 107.347 4.67238C107.315 4.77562 107.297 4.9019 107.297 5.05024V7.89173H106.23V1H107.297V3.8475H107.317C107.653 3.32932 108.135 3.07072 108.76 3.07072C109.202 3.07072 109.568 3.21305 109.858 3.4987C110.22 3.85451 110.402 4.38372 110.402 5.08332V7.89273Z" fill="white"/>
<path d="M116.233 5.3068C116.233 5.49523 116.219 5.6536 116.193 5.78289H112.991C113.005 6.24996 113.158 6.60577 113.454 6.85233C113.725 7.07283 114.075 7.18309 114.503 7.18309C114.977 7.18309 115.409 7.10892 115.798 6.95958L115.965 7.68924C115.509 7.88368 114.974 7.98091 114.353 7.98091C113.609 7.98091 113.023 7.76541 112.599 7.33443C112.173 6.90345 111.963 6.32513 111.963 5.59947C111.963 4.88685 112.159 4.29349 112.556 3.82041C112.969 3.31526 113.529 3.06268 114.235 3.06268C114.926 3.06268 115.45 3.31526 115.805 3.82041C116.091 4.22133 116.233 4.71746 116.233 5.3068ZM115.214 5.03518C115.222 4.72347 115.152 4.45486 115.007 4.22834C114.822 3.93668 114.539 3.79034 114.157 3.79034C113.809 3.79034 113.525 3.93267 113.308 4.21832C113.13 4.44584 113.025 4.71746 112.991 5.03518H115.214Z" fill="white"/>
<path fill-rule="evenodd" clip-rule="evenodd" d="M19.0765 7.83206C19.9165 6.81805 20.4805 5.40502 20.3265 4C19.1185 4.049 17.6565 4.80501 16.7915 5.81903C16.0144 6.71705 15.3344 8.15407 15.5184 9.53109C16.8645 9.6361 18.2405 8.84708 19.0785 7.83206H19.0765ZM22.0985 16.7502C22.1325 20.3823 25.2846 21.5913 25.3186 21.6073C25.2936 21.6923 24.8166 23.3293 23.6586 25.0204C22.6585 26.4824 21.6205 27.9394 19.9845 27.9694C18.3775 27.9984 17.8615 27.0164 16.0234 27.0164C14.1874 27.0164 13.6134 27.9394 12.0914 27.9984C10.5133 28.0584 9.31132 26.4174 8.30131 24.9614C6.24127 21.9813 4.66625 16.5412 6.78128 12.8691C7.8303 11.0451 9.70833 9.8901 11.7464 9.8611C13.2964 9.8311 14.7594 10.9041 15.7064 10.9041C16.6544 10.9041 18.4325 9.61409 20.3015 9.8031C21.0845 9.8361 23.2806 10.1191 24.6916 12.1841C24.5776 12.2541 22.0705 13.7142 22.0975 16.7502" fill="white"/>
</svg>
