<svg width="16" height="18" viewBox="0 0 16 18" fill="none" xmlns="http://www.w3.org/2000/svg">
<path fill-rule="evenodd" clip-rule="evenodd" d="M10.6864 2.87405C11.3302 2.11354 11.7625 1.05377 11.6445 0C10.7186 0.0367506 9.59807 0.60376 8.9351 1.36427C8.33958 2.03778 7.8184 3.11555 7.95943 4.14832C8.99105 4.22707 10.0457 3.63531 10.6879 2.87405H10.6864ZM13.0026 9.56266C13.0286 12.2867 15.4444 13.1935 15.4705 13.2055C15.4513 13.2692 15.0858 14.497 14.1982 15.7653C13.4318 16.8618 12.6362 17.9546 11.3823 17.9771C10.1507 17.9988 9.75519 17.2623 8.34648 17.2623C6.9393 17.2623 6.49937 17.9546 5.33285 17.9988C4.12342 18.0438 3.20216 16.813 2.42806 15.721C0.849201 13.486 -0.357936 9.40591 1.26308 6.65186C2.06707 5.28384 3.50643 4.41757 5.06843 4.39582C6.25641 4.37332 7.3777 5.17809 8.10352 5.17809C8.8301 5.17809 10.1928 4.21057 11.6253 4.35232C12.2254 4.37707 13.9085 4.58933 14.9899 6.1381C14.9026 6.1906 12.9811 7.28562 13.0018 9.56266" fill="white"/>
</svg>
