<svg width="120" height="30" viewBox="0 0 120 30" fill="none" xmlns="http://www.w3.org/2000/svg">
<path d="M40.8706 3.77154C40.8706 4.70362 40.5874 5.45011 40.0295 6.00684C39.388 6.66683 38.5525 6.99891 37.5287 6.99891C36.5503 6.99891 35.7148 6.66125 35.0294 5.99568C34.3427 5.32035 34 4.49153 34 3.49946C34 2.50739 34.3427 1.67857 35.0294 1.00882C35.7148 0.337668 36.5503 0 37.5287 0C38.0159 0 38.4803 0.0990677 38.9235 0.28325C39.3653 0.468827 39.725 0.719984 39.9856 1.02974L39.3937 1.61857C38.9391 1.08974 38.3203 0.82882 37.5287 0.82882C36.8151 0.82882 36.1963 1.07439 35.6709 1.56973C35.1512 2.06647 34.8907 2.70971 34.8907 3.49946C34.8907 4.28921 35.1512 4.93803 35.6709 5.43476C36.1963 5.92452 36.8151 6.17568 37.5287 6.17568C38.2863 6.17568 38.9235 5.92452 39.4262 5.42918C39.7576 5.10128 39.9459 4.6492 39.9955 4.07154H37.5287V3.26504H40.8196C40.8592 3.43946 40.8706 3.60829 40.8706 3.77154Z" fill="white"/>
<path d="M46.0889 0.976321H42.9977V3.0972H45.7844V3.9037H42.9977V6.02458H46.0889V6.84642H42.1226V0.15448H46.0889V0.976321Z" fill="white"/>
<path d="M49.7721 6.84642H48.897V0.976321H47.001V0.15448H51.6696V0.976321H49.7721V6.84642Z" fill="white"/>
<path d="M55.0471 6.84642V0.15448H55.9208V6.84642H55.0471Z" fill="white"/>
<path d="M59.7931 6.84642H58.9251V0.976321H57.022V0.15448H61.6963V0.976321H59.7931V6.84642Z" fill="white"/>
<path d="M70.5339 5.98562C69.8641 6.66235 69.0343 7.00001 68.0445 7.00001C67.049 7.00001 66.2193 6.66235 65.5495 5.98562C64.8811 5.31028 64.5483 4.48146 64.5483 3.50056C64.5483 2.51965 64.8811 1.69083 65.5495 1.01549C66.2193 0.338766 67.049 0.00109863 68.0445 0.00109863C69.0287 0.00109863 69.8585 0.338765 70.5282 1.02108C71.2023 1.70199 71.535 2.52523 71.535 3.50056C71.535 4.48146 71.2023 5.31028 70.5339 5.98562ZM66.1966 5.4247C66.7007 5.92562 67.3138 6.17677 68.0445 6.17677C68.7695 6.17677 69.3883 5.92562 69.8868 5.4247C70.3895 4.92378 70.6443 4.28054 70.6443 3.50056C70.6443 2.72057 70.3895 2.07733 69.8868 1.57641C69.3883 1.07549 68.7695 0.824336 68.0445 0.824336C67.3138 0.824336 66.7007 1.07549 66.1966 1.57641C65.6939 2.07733 65.439 2.72057 65.439 3.50056C65.439 4.28054 65.6939 4.92378 66.1966 5.4247Z" fill="white"/>
<path d="M72.7612 6.84642V0.15448H73.8233L77.1254 5.35901H77.1637L77.1254 4.07253V0.15448H77.9991V6.84642H77.0872L73.6293 1.38515H73.591L73.6293 2.67721V6.84642H72.7612Z" fill="white"/>
<path d="M61.4849 17.6976C59.1024 17.6976 57.156 19.4818 57.156 21.9436C57.156 24.3853 59.1024 26.1883 61.4849 26.1883C63.8725 26.1883 65.8189 24.3853 65.8189 21.9436C65.8189 19.4818 63.8725 17.6976 61.4849 17.6976ZM61.4849 24.5163C60.1776 24.5163 59.0529 23.4545 59.0529 21.9436C59.0529 20.4126 60.1776 19.3695 61.4849 19.3695C62.7922 19.3695 63.922 20.4126 63.922 21.9436C63.922 23.4545 62.7922 24.5163 61.4849 24.5163V24.5163ZM52.0397 17.6976C49.652 17.6976 47.7108 19.4818 47.7108 21.9436C47.7108 24.3853 49.652 26.1883 52.0397 26.1883C54.426 26.1883 56.3686 24.3853 56.3686 21.9436C56.3686 19.4818 54.426 17.6976 52.0397 17.6976ZM52.0397 24.5163C50.7311 24.5163 49.6026 23.4545 49.6026 21.9436C49.6026 20.4126 50.7311 19.3695 52.0397 19.3695C53.347 19.3695 54.4717 20.4126 54.4717 21.9436C54.4717 23.4545 53.347 24.5163 52.0397 24.5163ZM40.8002 18.999V20.8032H45.1786C45.0505 21.8113 44.7082 22.5524 44.1832 23.069C43.5441 23.6928 42.5488 24.3853 40.8002 24.3853C38.1057 24.3853 35.9958 22.2455 35.9958 19.5941C35.9958 16.9428 38.1057 14.8029 40.8002 14.8029C42.2571 14.8029 43.3172 15.3632 44.0995 16.0893L45.3916 14.8179C44.2973 13.7898 42.8417 13 40.8002 13C37.1053 13 34 15.9583 34 19.5941C34 23.23 37.1053 26.1883 40.8002 26.1883C42.7973 26.1883 44.2973 25.5444 45.4766 24.3367C46.6849 23.1476 47.0615 21.4757 47.0615 20.1257C47.0615 19.7064 47.026 19.3209 46.9626 18.999H40.8002ZM86.7597 20.3977C86.4034 19.4482 85.3041 17.6976 83.0648 17.6976C80.8458 17.6976 78.9983 19.4182 78.9983 21.9436C78.9983 24.3217 80.8268 26.1883 83.2778 26.1883C85.2597 26.1883 86.4034 24.9992 86.8738 24.3067L85.403 23.3422C84.9123 24.0484 84.244 24.5163 83.2778 24.5163C82.3179 24.5163 81.6294 24.0834 81.1882 23.2299L86.9588 20.8805L86.7597 20.3977V20.3977ZM80.8762 21.8113C80.8268 20.1743 82.1683 19.3359 83.1295 19.3359C83.8826 19.3359 84.5217 19.7064 84.7347 20.2367L80.8762 21.8113V21.8113ZM76.186 25.93H78.0829V13.4529H76.186V25.93ZM73.0794 18.6434H73.016C72.5899 18.1468 71.7772 17.6976 70.7476 17.6976C68.5869 17.6976 66.6114 19.5642 66.6114 21.9573C66.6114 24.3367 68.5869 26.1883 70.7476 26.1883C71.7772 26.1883 72.5899 25.7353 73.016 25.2238H73.0794V25.8327C73.0794 27.4559 72.1981 28.3281 70.7767 28.3281C69.6178 28.3281 68.8988 27.5046 68.6021 26.8121L66.9525 27.4896C67.428 28.615 68.6871 30 70.7767 30C73.0008 30 74.8774 28.7124 74.8774 25.5794V17.9559H73.0794V18.6434V18.6434ZM70.9099 24.5163C69.6026 24.5163 68.5083 23.4396 68.5083 21.9573C68.5083 20.4613 69.6026 19.3695 70.9099 19.3695C72.1981 19.3695 73.2138 20.4613 73.2138 21.9573C73.2138 23.4396 72.1981 24.5163 70.9099 24.5163V24.5163ZM95.6407 13.4529H91.1038V25.93H92.9957V21.2024H95.6407C97.7417 21.2024 99.8022 19.7064 99.8022 17.3271C99.8022 14.9489 97.7367 13.4529 95.6407 13.4529V13.4529ZM95.6901 19.4669H92.9957V15.1885H95.6901C97.1027 15.1885 97.9091 16.3426 97.9091 17.3271C97.9091 18.2928 97.1027 19.4669 95.6901 19.4669ZM107.385 17.6739C106.018 17.6739 104.596 18.2678 104.012 19.5842L105.691 20.2766C106.052 19.5842 106.717 19.3596 107.419 19.3596C108.4 19.3596 109.396 19.9397 109.411 20.9641V21.0951C109.069 20.9005 108.336 20.6123 107.434 20.6123C105.626 20.6123 103.784 21.5917 103.784 23.4196C103.784 25.0915 105.265 26.1683 106.93 26.1683C108.203 26.1683 108.905 25.6031 109.346 24.9455H109.411V25.91H111.238V21.1238C111.238 18.9116 109.559 17.6739 107.385 17.6739ZM107.157 24.5113C106.538 24.5113 105.676 24.2094 105.676 23.4545C105.676 22.4888 106.751 22.1182 107.682 22.1182C108.515 22.1182 108.905 22.2992 109.411 22.5375C109.263 23.6928 108.252 24.5113 107.157 24.5113V24.5113ZM117.895 17.9472L115.721 23.356H115.656L113.408 17.9472H111.368L114.745 25.5058L112.818 29.7118H114.795L120 17.9472H117.895V17.9472ZM100.842 25.93H102.739V13.4529H100.842V25.93Z" fill="white"/>
<path d="M15.2482 13.983L4.90271 3.60975L18.0652 11.166L15.2482 13.983ZM2.20346 3C1.59371 3.31875 1.18646 3.9 1.18646 4.6545V25.3403C1.18646 26.0948 1.59446 26.676 2.20346 26.9948L14.232 14.9948L2.20346 3ZM22.134 13.575L19.3732 11.9768L16.2937 15L19.3732 18.0233L22.1902 16.425C23.034 15.7553 23.034 14.2455 22.134 13.575ZM4.90346 26.391L18.066 18.8348L15.249 16.0178L4.90346 26.391Z" fill="white"/>
</svg>
