<svg width="26" height="26" viewBox="0 0 26 26" fill="none" xmlns="http://www.w3.org/2000/svg">
<path fill-rule="evenodd" clip-rule="evenodd" d="M13.1667 25.6667C20.0702 25.6667 25.6667 20.0702 25.6667 13.1667C25.6667 6.26313 20.0702 0.666687 13.1667 0.666687C6.26313 0.666687 0.666687 6.26313 0.666687 13.1667C0.666687 20.0702 6.26313 25.6667 13.1667 25.6667ZM16.0592 6.22987C16.9661 6.6041 17.7893 7.1537 18.4811 7.84682C19.1764 8.53603 19.7275 9.35554 20.1027 10.258C20.4778 11.1605 20.6695 12.128 20.6667 13.1046C20.665 17.2032 17.3139 20.5375 13.1983 20.5375H13.195C11.948 20.537 10.7211 20.2259 9.62591 19.6325L5.66669 20.6667L6.72575 16.8157C6.07268 15.6879 5.72908 14.4095 5.72908 13.0996C5.73075 9.00105 9.08182 5.66671 13.1983 5.66671C14.18 5.66423 15.1524 5.85564 16.0592 6.22987ZM13.1958 19.2831H13.1983C16.6192 19.2831 19.4038 16.511 19.4054 13.1046C19.4079 12.2927 19.2487 11.4884 18.937 10.7382C18.6252 9.98794 18.1672 9.30662 17.5893 8.73361C17.0145 8.15785 16.3306 7.70128 15.5774 7.39031C14.8241 7.07934 14.0163 6.92015 13.2008 6.92195C9.77649 6.92195 6.99197 9.69326 6.99031 13.0996C6.98884 14.2628 7.31792 15.4026 7.93956 16.3876L8.08681 16.6211L7.46036 18.9006L9.80977 18.287L10.0361 18.4212C10.9925 18.9855 12.0839 19.2832 13.1958 19.2831ZM15.3281 14.051C15.4994 14.1131 16.4162 14.5619 16.6034 14.6554C16.6396 14.6735 16.6735 14.6899 16.7049 14.705C16.8349 14.7677 16.9237 14.8105 16.9612 14.8732C17.0078 14.951 17.0078 15.3228 16.8522 15.7567C16.6966 16.1905 15.9512 16.5863 15.5926 16.6393C15.2707 16.6865 14.8638 16.7072 14.4171 16.5656C14.1467 16.4795 13.799 16.3652 13.353 16.174C11.6018 15.4211 10.4186 13.7312 10.197 13.4147C10.1817 13.3929 10.171 13.3776 10.165 13.3696L10.1626 13.3663C10.0608 13.2307 9.40295 12.3543 9.40295 11.4478C9.40295 10.5924 9.82476 10.1445 10.0194 9.9378C10.0327 9.92361 10.045 9.91056 10.056 9.8986C10.1186 9.82788 10.1951 9.77078 10.2809 9.73089C10.3666 9.69099 10.4597 9.66916 10.5544 9.66676C10.6734 9.66633 10.7924 9.66854 10.9113 9.67338C10.9244 9.67395 10.938 9.67383 10.9521 9.6737C11.0612 9.67271 11.1972 9.67147 11.3306 9.99051C11.3827 10.1152 11.4594 10.3008 11.5401 10.4961C11.6999 10.8831 11.8753 11.3078 11.9063 11.3699C11.9537 11.4627 11.9845 11.5712 11.9221 11.6953C11.9126 11.7142 11.9039 11.7319 11.8955 11.7489C11.8489 11.8436 11.8148 11.913 11.7357 12.005C11.7047 12.0412 11.6726 12.0802 11.6405 12.1192C11.5764 12.1972 11.5122 12.2752 11.4562 12.3304C11.3622 12.4232 11.2648 12.5233 11.3738 12.7096C11.4828 12.8959 11.8572 13.5037 12.4121 13.9964C13.0088 14.5258 13.5275 14.7496 13.79 14.8629C13.8411 14.8849 13.8825 14.9028 13.9129 14.9179C14.0993 15.0106 14.2083 14.9957 14.3173 14.8715C14.4262 14.7473 14.784 14.3292 14.9088 14.1437C15.0336 13.9583 15.1575 13.9889 15.3281 14.051Z" fill="white"/>
</svg>
